<?xml version="1.0" standalone="no"?>
<!DOCTYPE svg PUBLIC "-//W3C//DTD SVG 20010904//EN"
 "http://www.w3.org/TR/2001/REC-SVG-20010904/DTD/svg10.dtd">
<svg version="1.0" xmlns="http://www.w3.org/2000/svg"
 width="256.000000pt" height="256.000000pt" viewBox="0 0 256.000000 256.000000"
 preserveAspectRatio="xMidYMid meet">
<metadata>
Created by potrace 1.11, written by Peter Selinger 2001-2013
</metadata>
<g transform="translate(0.000000,256.000000) scale(0.100000,-0.100000)"
fill="#000000" stroke="none">
<path d="M1350 2373 c0 -35 505 -553 540 -553 13 0 -10 47 -57 117 -29 43 -35
61 -35 100 2 57 -28 125 -66 152 -15 10 -55 26 -90 35 -80 20 -159 62 -269
142 -13 9 -23 12 -23 7z"/>
<path d="M1346 2330 c4 -8 30 -48 56 -89 33 -51 48 -84 48 -108 0 -18 6 -49
14 -67 16 -38 83 -116 100 -116 22 0 119 -50 201 -104 l83 -54 -147 147 c-81
80 -192 200 -246 266 -106 130 -123 149 -109 125z"/>
<path d="M1315 2000 c-176 -42 -396 -261 -530 -530 -52 -103 -118 -303 -133
-400 -9 -59 -9 -292 0 -355 27 -181 124 -417 213 -514 44 -49 109 -83 145 -76
252 49 446 338 515 770 9 54 6 288 -3 297 -14 14 -215 -43 -332 -95 -67 -30
-125 -79 -138 -116 -17 -49 -3 -53 79 -26 108 36 198 55 205 44 6 -11 7 -141
0 -174 -2 -11 -7 -42 -11 -70 -11 -78 -53 -199 -97 -283 -68 -131 -103 -156
-172 -123 -78 38 -182 247 -204 410 -10 67 -8 359 2 426 38 248 89 387 191
518 51 64 129 126 161 127 31 0 54 -31 62 -86 13 -79 4 -169 -30 -324 -6 -29
39 -22 66 11 86 102 141 307 124 459 -11 98 -41 127 -113 110z"/>
</g>
</svg>
